0
SECTION
2
HEADER
9
$INSUNITS
70
4
9
$ACADVER
1
AC1014
9
$HANDSEED
5
FFFF
0
ENDSEC
0
SECTION
2
TABLES
0
TABLE
2
VPORT
5
8
100
AcDbSymbolTable
0
ENDTAB
0
TABLE
2
LTYPE
5
5
100
AcDbSymbolTable
0
LTYPE
5
14
100
AcDbSymbolTableRecord
100
AcDbLinetypeTableRecord
2
BYBLOCK
70
0
0
LTYPE
5
15
100
AcDbSymbolTableRecord
100
AcDbLinetypeTableRecord
2
BYLAYER
70
0
0
ENDTAB
0
TABLE
2
LAYER
5
2
100
AcDbSymbolTable
70
2
0
LAYER
5
50
100
AcDbSymbolTableRecord
100
AcDbLayerTableRecord
2
0
70
0
6
CONTINUOUS
0
ENDTAB
0
TABLE
2
STYLE
5
3
100
AcDbSymbolTable
70
1
0
STYLE
5
11
100
AcDbSymbolTableRecord
100
AcDbTextStyleTableRecord
2
STANDARD
70
0
0
ENDTAB
0
TABLE
2
VIEW
5
6
100
AcDbSymbolTable
70
0
0
ENDTAB
0
TABLE
2
UCS
5
7
100
AcDbSymbolTable
70
0
0
ENDTAB
0
TABLE
2
APPID
5
9
100
AcDbSymbolTable
70
2
0
APPID
5
12
100
AcDbSymbolTableRecord
100
AcDbRegAppTableRecord
2
ACAD
70
0
0
ENDTAB
0
TABLE
2
DIMSTYLE
5
A
100
AcDbSymbolTable
70
1
0
ENDTAB
0
TABLE
2
BLOCK_RECORD
5
1
100
AcDbSymbolTable
70
1
0
BLOCK_RECORD
5
1F
100
AcDbSymbolTableRecord
100
AcDbBlockTableRecord
2
*MODEL_SPACE
0
BLOCK_RECORD
5
1B
100
AcDbSymbolTableRecord
100
AcDbBlockTableRecord
2
*PAPER_SPACE
0
ENDTAB
0
ENDSEC
0
SECTION
2
BLOCKS
0
BLOCK
5
20
100
AcDbEntity
100
AcDbBlockBegin
2
*MODEL_SPACE
0
ENDBLK
5
21
100
AcDbEntity
100
AcDbBlockEnd
0
BLOCK
5
1C
100
AcDbEntity
100
AcDbBlockBegin
2
*PAPER_SPACE
0
ENDBLK
5
1D
100
AcDbEntity
100
AcDbBlockEnd
0
ENDSEC
0
SECTION
2
ENTITIES
0
LWPOLYLINE
5
100
100
AcDbEntity
8
0
100
AcDbPolyline
90
28
70
1
43
0.0
10
294.67732805013213
20
131.82526165492848
10
214.45715091388436
20
131.82526165492851
42
-0.41421356237305862
10
213.45715091388442
20
132.82526165492848
10
213.45715091388433
20
138.82526165492851
42
-0.4142135623730534
10
214.45715091388436
20
139.82526165492851
10
294.67732805013213
20
139.82526165492851
10
303.17499999999995
20
139.82526165492851
42
-0.41421356237309392
10
312.25000013411039
20
130.75026152081807
10
312.25000013411045
20
54.549999195337328
42
-0.41421356237309215
10
303.17500000000001
20
45.474999061226853
10
45.999999999999943
20
45.474999061226868
42
-0.41421356237309442
10
36.92499986588949
20
54.5499991953373
10
36.92499986588949
20
149.79999919533731
42
-0.41421356237309442
10
45.999999999999943
20
158.87499932944775
10
169.82499999999993
20
158.87499932944769
42
-0.3782988199113187
10
178.83014371456281
20
150.9238382025685
42
-0.45106414596561567
10
177.83784139153411
20
149.79999919533731
10
171.64313793661483
20
149.79999919533731
42
-0.27351568395261894
10
170.7669269394554
20
150.31807151564166
42
0.27351568395262454
10
169.82499999999993
20
150.87499932944775
10
45.999999999999943
20
150.87499932944777
42
0.4142135623730902
10
44.924999865889461
20
149.79999919533731
10
44.924999865889468
20
54.549999195337342
42
0.41421356237309742
10
45.999999999999943
20
53.47499906122686
10
303.17499999999995
20
53.474999061226889
42
0.41421356237306362
10
304.25000013411034
20
54.549999195337328
10
304.25000013411034
20
130.75026152081804
42
0.41421356237303697
10
303.17499999999995
20
131.82526165492848
0
CIRCLE
5
101
100
AcDbEntity
8
0
100
AcDbCircle
10
238.57585900526919
20
50.975080803199546
30
0
40
1.5000000000000036
210
0
220
0
230
1
0
CIRCLE
5
102
100
AcDbEntity
8
0
100
AcDbCircle
10
293.57585900526919
20
50.975080803199546
30
0
40
1.5000000000000036
210
0
220
0
230
1
0
CIRCLE
5
103
100
AcDbEntity
8
0
100
AcDbCircle
10
238.57585900526928
20
134.32508080319957
30
0
40
1.5000000000000036
210
0
220
0
230
1
0
CIRCLE
5
104
100
AcDbEntity
8
0
100
AcDbCircle
10
293.57585900526919
20
134.32508080319957
30
0
40
1.5000000000000036
210
0
220
0
230
1
0
LWPOLYLINE
5
105
100
AcDbEntity
8
0
100
AcDbPolyline
90
13
70
1
43
0.0
10
303.17499999999995
20
-258.77473941795506
42
-0.4142135623730836
10
312.25000013411039
20
-267.84973955206561
10
312.25000013411039
20
-272.13457388141819
42
-0.41421356237307422
10
310.25000013411039
20
-274.13457388141819
10
38.924999865889447
20
-274.13457388141796
42
-0.41421356237310542
10
36.92499986588949
20
-272.13457388141791
10
36.92499986588949
20
-248.80000187754626
42
-0.41421356237309048
10
45.999999999999943
20
-239.7250017434358
10
169.82499999999993
20
-239.7250017434358
42
-0.41421356237309048
10
178.9000001341104
20
-248.80000187754626
10
178.90000013411048
20
-257.84973955206561
42
0.41421356237311752
10
179.82500000000002
20
-258.77473941795523
10
294.67732805013213
20
-258.77473941795506
0
CIRCLE
5
106
100
AcDbEntity
8
0
100
AcDbCircle
10
293.57585900526919
20
-220.87492000146315
30
0
40
1.5000000000000036
210
0
220
0
230
1
0
LWPOLYLINE
5
107
100
AcDbEntity
8
0
100
AcDbPolyline
90
23
70
1
43
0.0
10
303.17499999999995
20
-215.37473914973424
42
-0.41421356237309392
10
312.25000013411039
20
-224.44973928384468
10
312.25000013411034
20
-231.72383821414687
42
-0.41421356237308982
10
310.25000013411034
20
-233.72383821414687
10
38.924999865889447
20
-233.72383821414658
42
-0.41421356237309503
10
36.924999865889312
20
-231.72383821414658
10
36.92499986588949
20
-205.40000160932544
42
-0.4142135623730962
10
45.999999999999943
20
-196.32500147521495
10
169.82499999999993
20
-196.32500147521495
42
-0.37829881991131681
10
178.83014371456281
20
-204.27616260209422
42
-0.45106414596561567
10
177.83784139153411
20
-205.40000160932544
10
171.64313793661483
20
-205.40000160932544
42
-0.27351568395261056
10
170.7669269394554
20
-204.88192928902109
42
0.27351568395259984
10
169.82499999999993
20
-204.32500147521498
10
122.00000101193794
20
-204.32500175307499
42
0.41421356238563384
10
121.00000101774789
20
-205.32500175892778
10
121.00000114856137
20
-227.67553567817399
42
0.41421356065884618
10
122.00000114856138
20
-228.67553567232119
10
212.45715091388433
20
-228.67553567232119
42
0.4142135623730846
10
213.45715091388442
20
-227.67553567232116
10
213.45715091388439
20
-216.37473914973424
42
-0.4142135623730534
10
214.45715091388436
20
-215.37473914973424
10
294.67732805013213
20
-215.37473914973424
0
CIRCLE
5
108
100
AcDbEntity
8
0
100
AcDbCircle
10
293.57585900526919
20
-264.274920269684
30
0
40
1
210
0
220
0
230
1
0
CIRCLE
5
109
100
AcDbEntity
8
0
100
AcDbCircle
10
238.57585900526928
20
-185.82491973324224
30
0
40
1
210
0
220
0
230
1
0
LWPOLYLINE
5
110
100
AcDbEntity
8
0
100
AcDbPolyline
90
23
70
1
43
0.0
10
312.25000013411039
20
-182.25000134110448
42
-0.41421356237309048
10
303.17500000000001
20
-191.32500147521498
10
45.999999999999943
20
-191.32500147521495
42
-0.41421356237309392
10
36.92499986588949
20
-182.25000134110451
10
36.924999865889482
20
-87.000001341104479
42
-0.41421356237309503
10
45.999999999999943
20
-77.925001206994025
10
169.82499999999993
20
-77.92500120699404
42
-0.3782988199113162
10
178.83014371456281
20
-85.876162333873296
42
-0.45106414596562094
10
177.83784139153411
20
-87.000001341104507
10
171.64313793661483
20
-87.000001341104507
42
-0.27351568395261472
10
170.76692693945535
20
-86.481929020800138
42
0.27351568551375638
10
169.8249999937542
20
-85.925001206994054
10
122.00000101193794
20
-85.925001484854064
42
0.41421356238563906
10
121.00000101774789
20
-86.925001490706876
10
121.00000114856137
20
-109.27553540995306
42
0.41421356065884102
10
122.00000114856138
20
-110.27553540410025
10
212.45715091388433
20
-110.27553540410025
42
0.41421356237307944
10
213.45715091388442
20
-109.27553540410025
10
213.45715091388439
20
-97.974738881513304
42
-0.41421356237305862
10
214.45715091388436
20
-96.974738881513304
10
294.67732805013213
20
-96.974738881513304
10
303.17499999999995
20
-96.974738881513332
42
-0.41421356237309392
10
312.25000013411039
20
-106.04973901562374
0
CIRCLE
5
111
100
AcDbEntity
8
0
100
AcDbCircle
10
238.57585900526928
20
-264.274920269684
30
0
40
1
210
0
220
0
230
1
0
CIRCLE
5
112
100
AcDbEntity
8
0
100
AcDbCircle
10
238.57585900526928
20
-264.274920269684
30
0
40
1
210
0
220
0
230
1
0
CIRCLE
5
113
100
AcDbEntity
8
0
100
AcDbCircle
10
293.57585900526919
20
-264.274920269684
30
0
40
1
210
0
220
0
230
1
0
CIRCLE
5
114
100
AcDbEntity
8
0
100
AcDbCircle
10
293.57585900526919
20
-185.82491973324224
30
0
40
1
210
0
220
0
230
1
0
CIRCLE
5
115
100
AcDbEntity
8
0
100
AcDbCircle
10
110.59874359107063
20
-201.82485801158271
30
0
40
1.5000000000000036
210
0
220
0
230
1
0
CIRCLE
5
116
100
AcDbEntity
8
0
100
AcDbCircle
10
293.57585900526919
20
-102.47491973324225
30
0
40
1.5000000000000036
210
0
220
0
230
1
0
CIRCLE
5
117
100
AcDbEntity
8
0
100
AcDbCircle
10
293.57585900526919
20
-67.424919465021347
30
0
40
1.5000000000000036
210
0
220
0
230
1
0
CIRCLE
5
118
100
AcDbEntity
8
0
100
AcDbCircle
10
55.598859005269219
20
-67.424919465021347
30
0
40
1.5000000000000036
210
0
220
0
230
1
0
LWPOLYLINE
5
119
100
AcDbEntity
8
0
100
AcDbPolyline
90
28
70
1
43
0.0
10
45.999999999999943
20
-72.92500120699404
42
-0.41421356237309159
10
36.92499986588949
20
-63.850001072883558
10
36.924999865889497
20
31.39999892711641
42
-0.41421356237309559
10
45.999999999999943
20
40.474999061226875
10
169.82499999999993
20
40.474999061226839
42
-0.3782988199113162
10
178.83014371456278
20
32.523837934347583
42
-0.45106414596561567
10
177.83784139153411
20
31.39999892711641
10
171.64313793661483
20
31.399998927116364
42
-0.273515683952609
10
170.7669269394554
20
31.918071247420798
42
0.27351568395259734
10
169.82499999999993
20
32.474999061226839
10
45.999999999999943
20
32.474999061226924
42
0.41421356237310469
10
44.924999865889461
20
31.39999892711641
10
44.924999865889497
20
-63.850001072883558
42
0.41421356237309503
10
45.999999999999943
20
-64.925001206994011
10
303.17499999999995
20
-64.925001206993969
42
0.41421356237309503
10
304.25000013411034
20
-63.850001072883558
10
304.25000013411034
20
12.350261252597168
42
0.41421356237302726
10
303.17499999999995
20
13.425261386707614
10
294.67732805013213
20
13.425261386707614
10
214.45715091388436
20
13.425261386707614
42
-0.41421356237311063
10
213.45715091388442
20
14.425261386707611
10
213.45715091388433
20
20.425261386707625
42
-0.4142135623730534
10
214.45715091388436
20
21.425261386707621
10
294.67732805013213
20
21.425261386707621
10
303.17499999999995
20
21.425261386707586
42
-0.41421356237309392
10
312.25000013411039
20
12.350261252597168
10
312.25000013411045
20
-63.850001072883558
42
-0.41421356237309159
10
303.17500000000001
20
-72.925001206994011
0
CIRCLE
5
120
100
AcDbEntity
8
0
100
AcDbCircle
10
110.59885900526922
20
-67.424919465021347
30
0
40
1.5000000000000036
210
0
220
0
230
1
0
CIRCLE
5
121
100
AcDbEntity
8
0
100
AcDbCircle
10
238.57585900526919
20
-67.424919465021347
30
0
40
1.5000000000000036
210
0
220
0
230
1
0
CIRCLE
5
122
100
AcDbEntity
8
0
100
AcDbCircle
10
110.59874359107063
20
153.37514279308004
30
0
40
1.5000000000000036
210
0
220
0
230
1
0
CIRCLE
5
123
100
AcDbEntity
8
0
100
AcDbCircle
10
110.59885900526922
20
50.975080803199546
30
0
40
1.5000000000000036
210
0
220
0
230
1
0
CIRCLE
5
124
100
AcDbEntity
8
0
100
AcDbCircle
10
110.59874359107063
20
34.975142524859123
30
0
40
1.5000000000000036
210
0
220
0
230
1
0
CIRCLE
5
125
100
AcDbEntity
8
0
100
AcDbCircle
10
293.57585900526919
20
15.925080534978626
30
0
40
1.5000000000000036
210
0
220
0
230
1
0
CIRCLE
5
126
100
AcDbEntity
8
0
100
AcDbCircle
10
238.57585900526928
20
15.925080534978626
30
0
40
1.5000000000000036
210
0
220
0
230
1
0
LWPOLYLINE
5
127
100
AcDbEntity
8
0
100
AcDbPolyline
90
13
70
1
43
0.0
10
312.25000013411039
20
367.55026205725983
10
312.25000013411045
20
291.34999973177906
42
-0.41421356237309159
10
303.17500000000001
20
282.27499959766863
10
45.999999999999943
20
282.27499959766868
42
-0.41421356237309392
10
36.92499986588949
20
291.34999973177906
10
36.92499986588949
20
386.59999973177918
42
-0.41421356237309737
10
45.999999999999943
20
395.67499986588956
10
169.82499999999993
20
395.67499986588962
42
-0.41421356237309964
10
178.9000001341104
20
386.59999973177918
10
178.9000001341104
20
377.55026205725983
42
0.41421356237309503
10
179.82500000000002
20
376.62526219137021
10
294.67732805013213
20
376.62526219137033
10
303.17499999999995
20
376.62526219137033
42
-0.41421356237308815
0
CIRCLE
5
128
100
AcDbEntity
8
0
100
AcDbCircle
10
293.57585900526919
20
406.17508160786224
30
0
40
1
210
0
220
0
230
1
0
CIRCLE
5
129
100
AcDbEntity
8
0
100
AcDbCircle
10
55.598859005269219
20
287.77508133964136
30
0
40
1
210
0
220
0
230
1
0
LWPOLYLINE
5
130
100
AcDbEntity
8
0
100
AcDbPolyline
90
17
70
1
43
0.0
10
54.448152760822985
20
369.6253817185534
42
-0.41418358515320652
10
53.448152766060701
20
368.62548406826869
10
45.924999865889475
20
368.62548406826869
42
0.41421356237309503
10
44.924999865889461
20
367.62548406826863
10
44.924999865889461
20
291.34999973177912
42
0.414213562373066
10
45.999999999999943
20
290.27499959766863
10
303.17499999999995
20
290.27499959766863
42
0.41421356237308532
10
304.25000013411034
20
291.34999973177906
10
304.25000013411034
20
367.55026205725983
42
0.41421356237301765
10
303.17499999999995
20
368.62526219137021
10
294.67732805013213
20
368.62526219137021
10
171.90000013411043
20
368.62526219137033
42
-0.41421356237315748
10
170.90000013411043
20
369.62526219137027
10
170.90000013411043
20
386.59999973177918
42
0.41421356237307572
10
169.82499999999993
20
387.6749998658895
10
55.449897789632345
20
387.6749998658895
42
0.41418358515320652
10
54.449897794870097
20
386.67510221560474
0
LWPOLYLINE
5
131
100
AcDbEntity
8
0
100
AcDbPolyline
90
17
70
1
43
0.0
10
304.25000013411034
20
409.74999999999994
42
-0.41421356237309503
10
303.17499999999995
20
408.6749998658895
10
45.999999999999943
20
408.6749998658895
42
-0.41421356237305634
10
44.924999865889532
20
409.74999999999994
10
44.92499986588939
20
486.02548433648951
42
-0.41421356237309503
10
45.924999865889475
20
487.02548433648957
10
53.448152766060701
20
487.02548433648957
42
0.41418358515320652
10
54.44815276082295
20
488.02538198677428
10
54.44989779486999
20
505.07510248382562
42
-0.41418358515320652
10
55.449897789632345
20
506.07500013411038
10
169.82499999999993
20
506.0750001341105
42
-0.41421356237309503
10
170.90000013411043
20
505
10
170.90000013411043
20
488.02526245959115
42
0.4142135623731783
10
171.90000013411043
20
487.02526245959109
10
294.67732805013213
20
487.02526245959109
10
303.17499999999995
20
487.02526245959109
42
-0.41421356237301765
10
304.25000013411034
20
485.95026232548065
0
CIRCLE
5
132
100
AcDbEntity
8
0
100
AcDbCircle
10
110.59874359107056
20
390.1751433295218
30
0
40
1
210
0
220
0
230
1
0
CIRCLE
5
133
100
AcDbEntity
8
0
100
AcDbCircle
10
55.598859005269219
20
390.17508133964128
30
0
40
1
210
0
220
0
230
1
0
CIRCLE
5
134
100
AcDbEntity
8
0
100
AcDbCircle
10
110.59885900526922
20
287.77508133964136
30
0
40
1
210
0
220
0
230
1
0
LWPOLYLINE
5
135
100
AcDbEntity
8
0
100
AcDbPolyline
90
13
70
1
43
0.0
10
179.82500000000002
20
495.02526245959103
10
294.67732805013213
20
495.0252624595912
10
303.17499999999995
20
495.02526245959126
42
-0.41421356237309048
10
312.25000013411039
20
485.95026232548065
10
312.25000013411039
20
409.74999999999994
42
-0.41421356237309276
10
303.17500000000001
20
400.6749998658895
10
45.999999999999943
20
400.6749998658895
42
-0.41421356237309503
10
36.92499986588949
20
409.74999999999994
10
36.92499986588949
20
505
42
-0.41421356237309737
10
45.999999999999943
20
514.07500013411038
10
169.82499999999993
20
514.0750001341105
42
-0.41421356237310192
10
178.9000001341104
20
505
10
178.9000001341104
20
495.95026232548065
42
0.41421356237309503
0
LWPOLYLINE
5
136
100
AcDbEntity
8
0
100
AcDbPolyline
90
17
70
1
43
0.0
10
169.82499999999993
20
506.0750001341105
42
-0.41421356237309503
10
170.90000013411043
20
505
10
170.90000013411043
20
488.02526245959115
42
0.4142135623731783
10
171.90000013411043
20
487.02526245959109
10
294.67732805013213
20
487.02526245959109
10
303.17499999999995
20
487.02526245959109
42
-0.41421356237301765
10
304.25000013411034
20
485.95026232548065
10
304.25000013411034
20
409.74999999999994
42
-0.41421356237309503
10
303.17499999999995
20
408.6749998658895
10
45.999999999999943
20
408.6749998658895
42
-0.41421356237305634
10
44.924999865889532
20
409.74999999999994
10
44.92499986588939
20
486.02548433648951
42
-0.41421356237309503
10
45.924999865889475
20
487.02548433648957
10
53.448152766060701
20
487.02548433648957
42
0.41418358515320652
10
54.44815276082295
20
488.02538198677428
10
54.44989779486999
20
505.07510248382562
42
-0.41418358515320652
10
55.449897789632345
20
506.07500013411038
0
CIRCLE
5
137
100
AcDbEntity
8
0
100
AcDbCircle
10
110.59885900526922
20
406.17508160786224
30
0
40
1
210
0
220
0
230
1
0
CIRCLE
5
138
100
AcDbEntity
8
0
100
AcDbCircle
10
110.59874359107056
20
508.57514359774268
30
0
40
1
210
0
220
0
230
1
0
CIRCLE
5
139
100
AcDbEntity
8
0
100
AcDbCircle
10
110.59874359107056
20
508.57514359774268
30
0
40
1
210
0
220
0
230
1
0
CIRCLE
5
140
100
AcDbEntity
8
0
100
AcDbCircle
10
55.598859005269219
20
508.5750816078621
30
0
40
1
210
0
220
0
230
1
0
LWPOLYLINE
5
141
100
AcDbEntity
8
0
100
AcDbPolyline
90
13
70
1
43
0.0
10
169.82499999999993
20
514.0750001341105
42
-0.41421356237310192
10
178.9000001341104
20
505
10
178.9000001341104
20
495.95026232548065
42
0.41421356237309503
10
179.82500000000002
20
495.02526245959103
10
294.67732805013213
20
495.0252624595912
10
303.17499999999995
20
495.02526245959126
42
-0.41421356237309048
10
312.25000013411039
20
485.95026232548065
10
312.25000013411039
20
409.74999999999994
42
-0.41421356237309276
10
303.17500000000001
20
400.6749998658895
10
45.999999999999943
20
400.6749998658895
42
-0.41421356237309503
10
36.92499986588949
20
409.74999999999994
10
36.92499986588949
20
505
42
-0.41421356237309737
10
45.999999999999943
20
514.07500013411038
0
CIRCLE
5
142
100
AcDbEntity
8
0
100
AcDbCircle
10
110.59885900526922
20
406.17508160786224
30
0
40
1
210
0
220
0
230
1
0
CIRCLE
5
143
100
AcDbEntity
8
0
100
AcDbCircle
10
55.598859005269219
20
406.17508160786224
30
0
40
1
210
0
220
0
230
1
0
CIRCLE
5
144
100
AcDbEntity
8
0
100
AcDbCircle
10
55.598859005269219
20
406.17508160786224
30
0
40
1
210
0
220
0
230
1
0
CIRCLE
5
145
100
AcDbEntity
8
0
100
AcDbCircle
10
55.598859005269219
20
508.5750816078621
30
0
40
1
210
0
220
0
230
1
0
CIRCLE
5
146
100
AcDbEntity
8
0
100
AcDbCircle
10
238.57585900526919
20
287.77508133964136
30
0
40
1
210
0
220
0
230
1
0
CIRCLE
5
147
100
AcDbEntity
8
0
100
AcDbCircle
10
293.57585900526919
20
406.17508160786224
30
0
40
1
210
0
220
0
230
1
0
CIRCLE
5
148
100
AcDbEntity
8
0
100
AcDbCircle
10
238.57585900526919
20
406.17508160786224
30
0
40
1
210
0
220
0
230
1
0
CIRCLE
5
149
100
AcDbEntity
8
0
100
AcDbCircle
10
238.57585900526928
20
489.52508160786209
30
0
40
1
210
0
220
0
230
1
0
CIRCLE
5
150
100
AcDbEntity
8
0
100
AcDbCircle
10
238.57585900526919
20
406.17508160786224
30
0
40
1
210
0
220
0
230
1
0
CIRCLE
5
151
100
AcDbEntity
8
0
100
AcDbCircle
10
238.57585900526928
20
489.52508160786209
30
0
40
1
210
0
220
0
230
1
0
CIRCLE
5
152
100
AcDbEntity
8
0
100
AcDbCircle
10
293.57585900526919
20
371.12508133964127
30
0
40
1
210
0
220
0
230
1
0
CIRCLE
5
153
100
AcDbEntity
8
0
100
AcDbCircle
10
238.57585900526928
20
371.12508133964127
30
0
40
1
210
0
220
0
230
1
0
CIRCLE
5
154
100
AcDbEntity
8
0
100
AcDbCircle
10
293.57585900526919
20
489.52508160786209
30
0
40
1
210
0
220
0
230
1
0
CIRCLE
5
155
100
AcDbEntity
8
0
100
AcDbCircle
10
293.57585900526919
20
287.77508133964136
30
0
40
1
210
0
220
0
230
1
0
CIRCLE
5
156
100
AcDbEntity
8
0
100
AcDbCircle
10
293.57585900526919
20
489.52508160786209
30
0
40
1
210
0
220
0
230
1
0
CIRCLE
5
157
100
AcDbEntity
8
0
100
AcDbCircle
10
238.57585900526928
20
-102.47491973324225
30
0
40
1.5000000000000036
210
0
220
0
230
1
0
CIRCLE
5
158
100
AcDbEntity
8
0
100
AcDbCircle
10
55.598859005269219
20
153.37508080319958
30
0
40
1.5000000000000036
210
0
220
0
230
1
0
CIRCLE
5
159
100
AcDbEntity
8
0
100
AcDbCircle
10
55.598859005269219
20
50.975080803199546
30
0
40
1.5000000000000036
210
0
220
0
230
1
0
CIRCLE
5
160
100
AcDbEntity
8
0
100
AcDbCircle
10
55.598859005269219
20
34.975080534978659
30
0
40
1.5000000000000036
210
0
220
0
230
1
0
CIRCLE
5
161
100
AcDbEntity
8
0
100
AcDbCircle
10
110.59874359107063
20
-83.424857743361812
30
0
40
1.5000000000000036
210
0
220
0
230
1
0
CIRCLE
5
162
100
AcDbEntity
8
0
100
AcDbCircle
10
55.598859005269219
20
-83.424919733242263
30
0
40
1.5000000000000036
210
0
220
0
230
1
0
CIRCLE
5
163
100
AcDbEntity
8
0
100
AcDbCircle
10
293.57585900526919
20
-220.87492000146315
30
0
40
1.5000000000000036
210
0
220
0
230
1
0
CIRCLE
5
164
100
AcDbEntity
8
0
100
AcDbCircle
10
238.57585900526928
20
-220.87492000146315
30
0
40
1.5000000000000036
210
0
220
0
230
1
0
CIRCLE
5
165
100
AcDbEntity
8
0
100
AcDbCircle
10
238.57585900526928
20
-220.87492000146315
30
0
40
1.5000000000000036
210
0
220
0
230
1
0
CIRCLE
5
166
100
AcDbEntity
8
0
100
AcDbCircle
10
110.59874359107063
20
-201.82485801158271
30
0
40
1.5000000000000036
210
0
220
0
230
1
0
CIRCLE
5
167
100
AcDbEntity
8
0
100
AcDbCircle
10
55.598859005269219
20
-201.82492000146317
30
0
40
1.5000000000000036
210
0
220
0
230
1
0
CIRCLE
5
168
100
AcDbEntity
8
0
100
AcDbCircle
10
110.59874359107056
20
-245.22485827980353
30
0
40
1
210
0
220
0
230
1
0
CIRCLE
5
169
100
AcDbEntity
8
0
100
AcDbCircle
10
110.59885900526915
20
-185.82491973324224
30
0
40
1
210
0
220
0
230
1
0
CIRCLE
5
170
100
AcDbEntity
8
0
100
AcDbCircle
10
110.59874359107056
20
-245.22485827980361
30
0
40
1
210
0
220
0
230
1
0
CIRCLE
5
171
100
AcDbEntity
8
0
100
AcDbCircle
10
55.598859005269219
20
-245.22492026968399
30
0
40
1
210
0
220
0
230
1
0
CIRCLE
5
172
100
AcDbEntity
8
0
100
AcDbCircle
10
55.598859005269219
20
-245.22492026968393
30
0
40
1
210
0
220
0
230
1
0
CIRCLE
5
173
100
AcDbEntity
8
0
100
AcDbCircle
10
55.598859005269219
20
-185.82491973324224
30
0
40
1
210
0
220
0
230
1
0
CIRCLE
5
174
100
AcDbEntity
8
0
100
AcDbCircle
10
55.598859005269219
20
-201.82492000146317
30
0
40
1.5000000000000036
210
0
220
0
230
1
0
LWPOLYLINE
5
175
100
AcDbEntity
8
0
100
AcDbPolyline
90
28
70
1
43
0.0
10
303.17499999999995
20
258.22526192314939
42
-0.41421356237309392
10
312.25000013411039
20
249.15026178903898
10
312.25000013411045
20
172.94999946355824
42
-0.41421356237309276
10
303.17500000000001
20
163.87499932944775
10
45.999999999999943
20
163.87499932944777
42
-0.41421356237309392
10
36.92499986588949
20
172.94999946355819
10
36.92499986588949
20
268.19999946355824
42
-0.41421356237309503
10
45.999999999999943
20
277.27499959766868
10
169.82499999999993
20
277.27499959766863
42
-0.3782988199113187
10
178.83014371456281
20
269.32383847078938
42
-0.45106414596560501
10
177.83784139153411
20
268.19999946355824
10
171.64313793661483
20
268.19999946355824
42
-0.27351568395261894
10
170.76692693945535
20
268.71807178386257
42
0.27351568395262454
10
169.82499999999993
20
269.27499959766863
10
45.999999999999943
20
269.27499959766868
42
0.41421356237309503
10
44.924999865889461
20
268.19999946355824
10
44.924999865889461
20
172.94999946355824
42
0.41421356237309503
10
45.999999999999943
20
171.87499932944775
10
303.17499999999995
20
171.87499932944777
42
0.414213562373066
10
304.25000013411034
20
172.94999946355824
10
304.25000013411034
20
249.15026178903895
42
0.41421356237303697
10
303.17499999999995
20
250.22526192314939
10
294.67732805013213
20
250.22526192314939
10
214.45715091388436
20
250.22526192314942
42
-0.4142135623730534
10
213.45715091388442
20
251.22526192314936
10
213.45715091388439
20
257.22526192314939
42
-0.4142135623730534
10
214.45715091388436
20
258.22526192314939
10
294.67732805013213
20
258.22526192314939
0
CIRCLE
5
176
100
AcDbEntity
8
0
100
AcDbCircle
10
293.57585900526919
20
252.72508107142045
30
0
40
1.5000000000000036
210
0
220
0
230
1
0
CIRCLE
5
177
100
AcDbEntity
8
0
100
AcDbCircle
10
238.57585900526928
20
252.72508107142045
30
0
40
1.5000000000000036
210
0
220
0
230
1
0
CIRCLE
5
178
100
AcDbEntity
8
0
100
AcDbCircle
10
238.57585900526919
20
169.37508107142042
30
0
40
1.5000000000000036
210
0
220
0
230
1
0
CIRCLE
5
179
100
AcDbEntity
8
0
100
AcDbCircle
10
293.57585900526919
20
169.37508107142042
30
0
40
1.5000000000000036
210
0
220
0
230
1
0
CIRCLE
5
180
100
AcDbEntity
8
0
100
AcDbCircle
10
55.598859005269219
20
169.37508107142042
30
0
40
1.5000000000000036
210
0
220
0
230
1
0
CIRCLE
5
181
100
AcDbEntity
8
0
100
AcDbCircle
10
55.598859005269219
20
271.77508107142046
30
0
40
1.5000000000000036
210
0
220
0
230
1
0
CIRCLE
5
182
100
AcDbEntity
8
0
100
AcDbCircle
10
110.59885900526922
20
169.37508107142042
30
0
40
1.5000000000000036
210
0
220
0
230
1
0
CIRCLE
5
183
100
AcDbEntity
8
0
100
AcDbCircle
10
110.59874359107063
20
271.77514306130092
30
0
40
1.5000000000000036
210
0
220
0
230
1
0
ENDSEC
0
SECTION
2
OBJECTS
0
DICTIONARY
5
C
100
AcDbDictionary
3
ACAD_GROUP
350
D
3
ACAD_MLINESTYLE
350
17
0
DICTIONARY
5
D
100
AcDbDictionary
0
DICTIONARY
5
1A
330
C
100
AcDbDictionary
0
DICTIONARY
5
17
100
AcDbDictionary
0
ENDSEC
0
EOF
