0
SECTION
2
HEADER
9
$INSUNITS
70
4
9
$ACADVER
1
AC1014
9
$HANDSEED
5
FFFF
0
ENDSEC
0
SECTION
2
TABLES
0
TABLE
2
VPORT
5
8
100
AcDbSymbolTable
0
ENDTAB
0
TABLE
2
LTYPE
5
5
100
AcDbSymbolTable
0
LTYPE
5
14
100
AcDbSymbolTableRecord
100
AcDbLinetypeTableRecord
2
BYBLOCK
70
0
0
LTYPE
5
15
100
AcDbSymbolTableRecord
100
AcDbLinetypeTableRecord
2
BYLAYER
70
0
0
ENDTAB
0
TABLE
2
LAYER
5
2
100
AcDbSymbolTable
70
2
0
LAYER
5
50
100
AcDbSymbolTableRecord
100
AcDbLayerTableRecord
2
0
70
0
6
CONTINUOUS
0
ENDTAB
0
TABLE
2
STYLE
5
3
100
AcDbSymbolTable
70
1
0
STYLE
5
11
100
AcDbSymbolTableRecord
100
AcDbTextStyleTableRecord
2
STANDARD
70
0
0
ENDTAB
0
TABLE
2
VIEW
5
6
100
AcDbSymbolTable
70
0
0
ENDTAB
0
TABLE
2
UCS
5
7
100
AcDbSymbolTable
70
0
0
ENDTAB
0
TABLE
2
APPID
5
9
100
AcDbSymbolTable
70
2
0
APPID
5
12
100
AcDbSymbolTableRecord
100
AcDbRegAppTableRecord
2
ACAD
70
0
0
ENDTAB
0
TABLE
2
DIMSTYLE
5
A
100
AcDbSymbolTable
70
1
0
ENDTAB
0
TABLE
2
BLOCK_RECORD
5
1
100
AcDbSymbolTable
70
1
0
BLOCK_RECORD
5
1F
100
AcDbSymbolTableRecord
100
AcDbBlockTableRecord
2
*MODEL_SPACE
0
BLOCK_RECORD
5
1B
100
AcDbSymbolTableRecord
100
AcDbBlockTableRecord
2
*PAPER_SPACE
0
ENDTAB
0
ENDSEC
0
SECTION
2
BLOCKS
0
BLOCK
5
20
100
AcDbEntity
100
AcDbBlockBegin
2
*MODEL_SPACE
0
ENDBLK
5
21
100
AcDbEntity
100
AcDbBlockEnd
0
BLOCK
5
1C
100
AcDbEntity
100
AcDbBlockBegin
2
*PAPER_SPACE
0
ENDBLK
5
1D
100
AcDbEntity
100
AcDbBlockEnd
0
ENDSEC
0
SECTION
2
ENTITIES
0
LWPOLYLINE
5
100
100
AcDbEntity
8
0
100
AcDbPolyline
90
8
70
1
43
0.0
10
73.174999999999997
20
-21.575000000000003
42
-0.41421356237309503
10
73.674999999999997
20
-22.074999999999999
10
73.674999999999997
20
-35.075000000000003
42
-0.41421356237309503
10
73.174999999999997
20
-35.575000000000003
10
60.174999999999997
20
-35.575000000000003
42
-0.41421356237309503
10
59.675000000000004
20
-35.075000000000003
10
59.675000000000004
20
-22.074999999999999
42
-0.41421356237309503
10
60.174999999999997
20
-21.575000000000003
0
LWPOLYLINE
5
101
100
AcDbEntity
8
0
100
AcDbPolyline
90
8
70
1
43
0.0
10
92.224999999999994
20
-21.575000000000003
10
79.224999999999994
20
-21.575000000000003
42
0.41421356237309503
10
78.724999999999994
20
-22.074999999999999
10
78.724999999999994
20
-35.075000000000003
42
0.41421356237309503
10
79.224999999999994
20
-35.575000000000003
10
92.224999999999994
20
-35.575000000000003
42
0.41421356237309503
10
92.725000000000009
20
-35.075000000000003
10
92.725000000000009
20
-22.074999999999999
42
0.41421356237309503
0
LWPOLYLINE
5
102
100
AcDbEntity
8
0
100
AcDbPolyline
90
8
70
1
43
0.0
10
54.125000000000007
20
-21.575000000000003
42
-0.41421356237309503
10
54.625
20
-22.074999999999999
10
54.625
20
-35.075000000000003
42
-0.41421356237309503
10
54.125000000000007
20
-35.575000000000003
10
41.125
20
-35.575000000000003
42
-0.41421356237309503
10
40.625
20
-35.075000000000003
10
40.625
20
-22.074999999999999
42
-0.41421356237309503
10
41.125
20
-21.575000000000003
0
LWPOLYLINE
5
103
100
AcDbEntity
8
0
100
AcDbPolyline
90
8
70
1
43
0.0
10
35.075000000000003
20
-21.575000000000003
42
-0.41421356237309503
10
35.575000000000003
20
-22.074999999999999
10
35.575000000000003
20
-35.075000000000003
42
-0.41421356237309503
10
35.075000000000003
20
-35.575000000000003
10
22.074999999999999
20
-35.575000000000003
42
-0.41421356237309503
10
21.575000000000003
20
-35.075000000000003
10
21.575000000000003
20
-22.074999999999999
42
-0.41421356237309503
10
22.074999999999999
20
-21.575000000000003
0
LWPOLYLINE
5
104
100
AcDbEntity
8
0
100
AcDbPolyline
90
8
70
1
43
0.0
10
111.27500000000001
20
-35.575000000000003
10
98.275000000000006
20
-35.57500000000001
42
-0.41421356237309503
10
97.77500000000002
20
-35.075000000000003
10
97.775000000000006
20
-22.074999999999999
42
-0.41421356237309503
10
98.275000000000006
20
-21.575000000000003
10
111.27500000000001
20
-21.574999999999992
42
-0.41421356237309503
10
111.77500000000002
20
-22.074999999999999
10
111.77500000000002
20
-35.075000000000003
42
-0.41421356237309503
0
LWPOLYLINE
5
105
100
AcDbEntity
8
0
100
AcDbPolyline
90
8
70
1
43
0.0
10
130.32499999999999
20
-21.575000000000003
10
117.32500000000002
20
-21.575000000000003
42
0.41421356237309503
10
116.82500000000002
20
-22.074999999999999
10
116.82500000000002
20
-35.075000000000003
42
0.41421356237309503
10
117.32500000000002
20
-35.575000000000003
10
130.32499999999999
20
-35.575000000000003
42
0.41421356237309503
10
130.82499999999999
20
-35.075000000000003
10
130.82499999999999
20
-22.074999999999999
42
0.41421356237309503
0
LWPOLYLINE
5
106
100
AcDbEntity
8
0
100
AcDbPolyline
90
8
70
1
43
0.0
10
135.875
20
-35.075000000000003
10
135.87500000000003
20
-22.074999999999999
42
-0.41421356237309503
10
136.375
20
-21.575000000000003
10
149.375
20
-21.574999999999992
42
-0.41421356237309503
10
149.875
20
-22.074999999999999
10
149.875
20
-35.075000000000003
42
-0.41421356237309503
10
149.375
20
-35.575000000000003
10
136.375
20
-35.57500000000001
42
-0.41421356237309503
0
LWPOLYLINE
5
107
100
AcDbEntity
8
0
100
AcDbPolyline
90
8
70
1
43
0.0
10
25.550000000000001
20
-2.5249999999999999
10
12.550000000000001
20
-2.5249999999999999
42
0.41421356237309503
10
12.050000000000001
20
-3.0249999999999999
10
12.050000000000001
20
-16.024999999999999
42
0.41421356237309503
10
12.550000000000001
20
-16.525000000000002
10
25.550000000000001
20
-16.525000000000002
42
0.41421356237309503
10
26.050000000000001
20
-16.024999999999999
10
26.050000000000001
20
-3.0249999999999999
42
0.41421356237309503
0
LWPOLYLINE
5
108
100
AcDbEntity
8
0
100
AcDbPolyline
90
8
70
1
43
0.0
10
107.30000000000001
20
-16.024999999999999
10
107.30000000000001
20
-3.0249999999999999
42
-0.41421356237309503
10
107.80000000000001
20
-2.5249999999999999
10
120.8
20
-2.5249999999999928
42
-0.41421356237309503
10
121.30000000000001
20
-3.0249999999999999
10
121.30000000000001
20
-16.024999999999999
42
-0.41421356237309503
10
120.8
20
-16.525000000000002
10
107.80000000000001
20
-16.525000000000006
42
-0.41421356237309503
0
LWPOLYLINE
5
109
100
AcDbEntity
8
0
100
AcDbPolyline
90
8
70
1
43
0.0
10
88.25
20
-3.0249999999999999
42
-0.41421356237309503
10
88.75
20
-2.5249999999999999
10
101.75
20
-2.5249999999999928
42
-0.41421356237309503
10
102.25000000000001
20
-3.0249999999999999
10
102.25000000000001
20
-16.024999999999999
42
-0.41421356237309503
10
101.75
20
-16.525000000000002
10
88.75
20
-16.525000000000006
42
-0.41421356237309503
10
88.25
20
-16.024999999999999
0
LWPOLYLINE
5
110
100
AcDbEntity
8
0
100
AcDbPolyline
90
8
70
1
43
0.0
10
63.650000000000006
20
-2.5249999999999999
10
50.650000000000006
20
-2.5249999999999999
42
0.41421356237309503
10
50.150000000000006
20
-3.0249999999999999
10
50.150000000000006
20
-16.024999999999999
42
0.41421356237309503
10
50.650000000000006
20
-16.524999999999999
10
63.650000000000006
20
-16.525000000000002
42
0.41421356237309503
10
64.150000000000006
20
-16.024999999999999
10
64.150000000000006
20
-3.0249999999999999
42
0.41421356237309503
0
LWPOLYLINE
5
111
100
AcDbEntity
8
0
100
AcDbPolyline
90
8
70
1
43
0.0
10
69.200000000000003
20
-16.024999999999999
10
69.200000000000003
20
-3.0249999999999999
42
-0.41421356237309503
10
69.700000000000003
20
-2.5249999999999999
10
82.700000000000017
20
-2.5249999999999928
42
-0.41421356237309503
10
83.200000000000003
20
-3.0249999999999999
10
83.200000000000017
20
-16.024999999999999
42
-0.41421356237309503
10
82.700000000000017
20
-16.525000000000002
10
69.700000000000003
20
-16.524999999999999
42
-0.41421356237309503
0
LWPOLYLINE
5
112
100
AcDbEntity
8
0
100
AcDbPolyline
90
8
70
1
43
0.0
10
45.100000000000009
20
-16.024999999999999
10
45.099999999999994
20
-3.0249999999999999
42
0.41421356237309503
10
44.600000000000001
20
-2.5249999999999999
10
31.600000000000001
20
-2.5249999999999999
42
0.41421356237309503
10
31.100000000000001
20
-3.0249999999999999
10
31.100000000000001
20
-16.024999999999999
42
0.41421356237309503
10
31.600000000000001
20
-16.525000000000002
10
44.600000000000001
20
-16.525000000000002
42
0.41421356237309503
0
LWPOLYLINE
5
113
100
AcDbEntity
8
0
100
AcDbPolyline
90
8
70
1
43
0.0
10
154.92500000000001
20
-35.075000000000003
10
154.92500000000004
20
-22.074999999999999
42
-0.41421356237309503
10
155.42500000000001
20
-21.575000000000003
10
168.42500000000001
20
-21.574999999999992
42
-0.41421356237309503
10
168.92500000000001
20
-22.074999999999999
10
168.92500000000001
20
-35.075000000000003
42
-0.41421356237309503
10
168.42500000000001
20
-35.575000000000003
10
155.42500000000001
20
-35.57500000000001
42
-0.41421356237309503
0
LWPOLYLINE
5
114
100
AcDbEntity
8
0
100
AcDbPolyline
90
8
70
1
43
0.0
10
16.524999999999999
20
-35.075000000000003
10
16.525000000000002
20
-22.074999999999999
42
0.41421356237309503
10
16.024999999999999
20
-21.575000000000003
10
3.0249999999999999
20
-21.575000000000003
42
0.41421356237309503
10
2.5249999999999999
20
-22.074999999999999
10
2.5249999999999999
20
-35.075000000000003
42
0.41421356237309503
10
3.0249999999999999
20
-35.575000000000003
10
16.024999999999999
20
-35.575000000000003
42
0.41421356237309503
0
LWPOLYLINE
5
115
100
AcDbEntity
8
0
100
AcDbPolyline
90
8
70
1
43
0.0
10
187.47499999999999
20
-21.575000000000003
10
174.47500000000002
20
-21.575000000000003
42
0.41421356237309503
10
173.97500000000002
20
-22.074999999999999
10
173.97500000000002
20
-35.075000000000003
42
0.41421356237309503
10
174.47500000000002
20
-35.575000000000003
10
187.47499999999999
20
-35.575000000000003
42
0.41421356237309503
10
187.97499999999999
20
-35.075000000000003
10
187.97499999999999
20
-22.074999999999999
42
0.41421356237309503
0
LWPOLYLINE
5
116
100
AcDbEntity
8
0
100
AcDbPolyline
90
8
70
1
43
0.0
10
18.90625
20
-92.224999999999994
10
18.906250000000004
20
-79.224999999999994
42
0.41421356237309503
10
18.40625
20
-78.724999999999994
10
5.40625
20
-78.724999999999994
42
0.41421356237309503
10
4.90625
20
-79.224999999999994
10
4.90625
20
-92.224999999999994
42
0.41421356237309503
10
5.4062499999999991
20
-92.725000000000009
10
18.40625
20
-92.725000000000009
42
0.41421356237309503
0
LWPOLYLINE
5
117
100
AcDbEntity
8
0
100
AcDbPolyline
90
8
70
1
43
0.0
10
39.837499999999999
20
-78.724999999999994
42
-0.41421356237309503
10
40.337500000000006
20
-79.224999999999994
10
40.337500000000013
20
-92.224999999999994
42
-0.41421356237309503
10
39.837499999999999
20
-92.724999999999994
10
26.837499999999999
20
-92.725000000000009
42
-0.41421356237309503
10
26.337499999999999
20
-92.224999999999994
10
26.337499999999999
20
-79.224999999999994
42
-0.41421356237309503
10
26.837499999999999
20
-78.724999999999994
0
LWPOLYLINE
5
118
100
AcDbEntity
8
0
100
AcDbPolyline
90
8
70
1
43
0.0
10
121.58750000000001
20
-79.224999999999994
42
-0.41421356237309503
10
122.08750000000002
20
-78.724999999999994
10
135.08750000000001
20
-78.724999999999994
42
-0.41421356237309503
10
135.58750000000001
20
-79.224999999999994
10
135.58750000000001
20
-92.224999999999994
42
-0.41421356237309503
10
135.08750000000001
20
-92.725000000000009
10
122.08750000000002
20
-92.725000000000009
42
-0.41421356237309503
10
121.58750000000001
20
-92.224999999999994
0
LWPOLYLINE
5
119
100
AcDbEntity
8
0
100
AcDbPolyline
90
8
70
1
43
0.0
10
108.30674999999999
20
-77.224999999999994
10
108.30675000000001
20
-91.225000000000009
42
-0.41421356237309503
10
107.80675000000001
20
-91.724999999999994
10
101.80675000000001
20
-91.725000000000009
42
-0.41421356237309503
10
101.30674999999999
20
-91.225000000000009
10
101.30674999999999
20
-77.224999999999994
42
-0.41421356237309503
10
101.80675000000001
20
-76.724999999999994
10
107.80675000000001
20
-76.724999999999994
42
-0.41421356237309503
0
LWPOLYLINE
5
120
100
AcDbEntity
8
0
100
AcDbPolyline
90
8
70
1
43
0.0
10
166.04375000000002
20
-92.724999999999994
10
153.04374999999999
20
-92.725000000000009
42
-0.41421356237309503
10
152.54374999999999
20
-92.224999999999994
10
152.54374999999999
20
-79.224999999999994
42
-0.41421356237309503
10
153.04374999999999
20
-78.724999999999994
10
166.04375000000002
20
-78.724999999999994
42
-0.41421356237309503
10
166.54375000000002
20
-79.224999999999994
10
166.54375000000002
20
-92.224999999999994
42
-0.41421356237309503
0
LWPOLYLINE
5
121
100
AcDbEntity
8
0
100
AcDbPolyline
90
8
70
1
43
0.0
10
158.90000000000001
20
-59.675000000000004
10
145.90000000000001
20
-59.675000000000004
42
0.41421356237309503
10
145.40000000000001
20
-60.174999999999997
10
145.40000000000001
20
-73.174999999999997
42
0.41421356237309503
10
145.90000000000001
20
-73.674999999999997
10
158.90000000000001
20
-73.674999999999997
42
0.41421356237309503
10
159.40000000000001
20
-73.174999999999997
10
159.40000000000001
20
-60.174999999999997
42
0.41421356237309503
0
LWPOLYLINE
5
122
100
AcDbEntity
8
0
100
AcDbPolyline
90
8
70
1
43
0.0
10
197.00000000000003
20
-59.675000000000004
10
184.00000000000003
20
-59.675000000000004
42
0.41421356237309503
10
183.5
20
-60.174999999999997
10
183.5
20
-73.174999999999997
42
0.41421356237309503
10
184.00000000000003
20
-73.674999999999997
10
197.00000000000003
20
-73.674999999999997
42
0.41421356237309503
10
197.5
20
-73.174999999999997
10
197.50000000000003
20
-60.174999999999997
42
0.41421356237309503
0
LWPOLYLINE
5
123
100
AcDbEntity
8
0
100
AcDbPolyline
90
8
70
1
43
0.0
10
174.98175000000003
20
-91.225000000000009
42
-0.41421356237309503
10
174.48175000000003
20
-91.725000000000009
10
168.48175000000001
20
-91.725000000000009
42
-0.41421356237309503
10
167.98175000000001
20
-91.225000000000009
10
167.98175000000001
20
-77.224999999999994
42
-0.41421356237309503
10
168.48175000000001
20
-76.724999999999994
10
174.48175000000003
20
-76.724999999999994
42
-0.41421356237309503
10
174.98175000000001
20
-77.224999999999994
0
LWPOLYLINE
5
124
100
AcDbEntity
8
0
100
AcDbPolyline
90
8
70
1
43
0.0
10
254.15000000000003
20
-59.674999999999997
42
-0.41421356237309503
10
254.65000000000003
20
-60.174999999999997
10
254.65000000000003
20
-73.174999999999997
42
-0.41421356237309503
10
254.15000000000003
20
-73.674999999999997
10
241.15000000000003
20
-73.675000000000011
42
-0.41421356237309503
10
240.65000000000001
20
-73.174999999999997
10
240.65000000000001
20
-60.174999999999997
42
-0.41421356237309503
10
241.15000000000003
20
-59.675000000000004
0
LWPOLYLINE
5
125
100
AcDbEntity
8
0
100
AcDbPolyline
90
8
70
1
43
0.0
10
216.05000000000004
20
-59.675000000000004
10
203.05000000000004
20
-59.675000000000004
42
0.41421356237309503
10
202.55000000000001
20
-60.174999999999997
10
202.55000000000001
20
-73.174999999999997
42
0.41421356237309503
10
203.05000000000004
20
-73.674999999999997
10
216.05000000000004
20
-73.674999999999997
42
0.41421356237309503
10
216.55000000000004
20
-73.174999999999997
10
216.55000000000004
20
-60.174999999999997
42
0.41421356237309503
0
LWPOLYLINE
5
126
100
AcDbEntity
8
0
100
AcDbPolyline
90
8
70
1
43
0.0
10
77.930750000000003
20
-76.724999999999994
10
83.930750000000018
20
-76.724999999999994
42
-0.41421356237309503
10
84.430750000000003
20
-77.224999999999994
10
84.430750000000018
20
-91.225000000000009
42
-0.41421356237309503
10
83.930750000000018
20
-91.725000000000009
10
77.930750000000003
20
-91.724999999999994
42
-0.41421356237309503
10
77.430750000000018
20
-91.225000000000009
10
77.430750000000018
20
-77.224999999999994
42
-0.41421356237309503
0
LWPOLYLINE
5
127
100
AcDbEntity
8
0
100
AcDbPolyline
90
8
70
1
43
0.0
10
235.10000000000002
20
-59.675000000000004
10
222.10000000000002
20
-59.675000000000004
42
0.41421356237309503
10
221.59999999999999
20
-60.174999999999997
10
221.59999999999999
20
-73.174999999999997
42
0.41421356237309503
10
222.10000000000002
20
-73.674999999999997
10
235.10000000000002
20
-73.674999999999997
42
0.41421356237309503
10
235.60000000000002
20
-73.174999999999997
10
235.60000000000002
20
-60.174999999999997
42
0.41421356237309503
0
LWPOLYLINE
5
128
100
AcDbEntity
8
0
100
AcDbPolyline
90
8
70
1
43
0.0
10
99.368750000000006
20
-92.724999999999994
10
86.36875000000002
20
-92.725000000000009
42
-0.41421356237309503
10
85.868750000000006
20
-92.224999999999994
10
85.868750000000034
20
-79.224999999999994
42
-0.41421356237309503
10
86.36875000000002
20
-78.724999999999994
10
99.368750000000006
20
-78.724999999999994
42
-0.41421356237309503
10
99.868750000000006
20
-79.224999999999994
10
99.868750000000006
20
-92.224999999999994
42
-0.41421356237309503
0
LWPOLYLINE
5
129
100
AcDbEntity
8
0
100
AcDbPolyline
90
8
70
1
43
0.0
10
177.94999999999999
20
-59.674999999999997
42
-0.41421356237309503
10
178.44999999999999
20
-60.174999999999997
10
178.44999999999999
20
-73.174999999999997
42
-0.41421356237309503
10
177.94999999999999
20
-73.674999999999997
10
164.95000000000002
20
-73.675000000000011
42
-0.41421356237309503
10
164.44999999999999
20
-73.174999999999997
10
164.44999999999999
20
-60.174999999999997
42
-0.41421356237309503
10
164.95000000000002
20
-59.675000000000004
0
LWPOLYLINE
5
130
100
AcDbEntity
8
0
100
AcDbPolyline
90
8
70
1
43
0.0
10
144.60575
20
-76.724999999999994
10
150.60575
20
-76.724999999999994
42
-0.41421356237309503
10
151.10575
20
-77.224999999999994
10
151.10575
20
-91.225000000000009
42
-0.41421356237309503
10
150.60575
20
-91.724999999999994
10
144.60575
20
-91.725000000000009
42
-0.41421356237309503
10
144.10575
20
-91.225000000000009
10
144.10575
20
-77.224999999999994
42
-0.41421356237309503
0
LWPOLYLINE
5
131
100
AcDbEntity
8
0
100
AcDbPolyline
90
8
70
1
43
0.0
10
216.05000000000004
20
-78.724999999999994
42
-0.41421356237309503
10
216.55000000000004
20
-79.224999999999994
10
216.55000000000004
20
-92.224999999999994
42
-0.41421356237309503
10
216.05000000000004
20
-92.725000000000009
10
203.05000000000004
20
-92.725000000000009
42
-0.41421356237309503
10
202.55000000000001
20
-92.224999999999994
10
202.55000000000001
20
-79.224999999999994
42
-0.41421356237309503
10
203.05000000000004
20
-78.724999999999994
0
LWPOLYLINE
5
132
100
AcDbEntity
8
0
100
AcDbPolyline
90
8
70
1
43
0.0
10
221.59999999999999
20
-79.224999999999994
42
-0.41421356237309503
10
222.10000000000002
20
-78.724999999999994
10
235.10000000000002
20
-78.724999999999994
42
-0.41421356237309503
10
235.60000000000002
20
-79.224999999999994
10
235.60000000000002
20
-92.224999999999994
42
-0.41421356237309503
10
235.10000000000002
20
-92.724999999999994
10
222.10000000000002
20
-92.725000000000009
42
-0.41421356237309503
10
221.59999999999999
20
-92.224999999999994
0
LWPOLYLINE
5
133
100
AcDbEntity
8
0
100
AcDbPolyline
90
8
70
1
43
0.0
10
61.268749999999997
20
-78.724999999999994
42
-0.41421356237309503
10
61.768749999999997
20
-79.224999999999994
10
61.768750000000011
20
-92.224999999999994
42
-0.41421356237309503
10
61.268749999999997
20
-92.725000000000009
10
48.268750000000004
20
-92.725000000000009
42
-0.41421356237309503
10
47.768749999999997
20
-92.224999999999994
10
47.768750000000004
20
-79.224999999999994
42
-0.41421356237309503
10
48.268750000000004
20
-78.724999999999994
0
LWPOLYLINE
5
134
100
AcDbEntity
8
0
100
AcDbPolyline
90
8
70
1
43
0.0
10
197.5
20
-92.224999999999994
10
197.50000000000003
20
-79.224999999999994
42
0.41421356237309503
10
197.00000000000003
20
-78.724999999999994
10
184.00000000000003
20
-78.724999999999994
42
0.41421356237309503
10
183.5
20
-79.224999999999994
10
183.5
20
-92.224999999999994
42
0.41421356237309503
10
184.00000000000003
20
-92.724999999999994
10
197.00000000000003
20
-92.725000000000009
42
0.41421356237309503
0
LWPOLYLINE
5
135
100
AcDbEntity
8
0
100
AcDbPolyline
90
8
70
1
43
0.0
10
240.65000000000001
20
-92.224999999999994
10
240.65000000000001
20
-79.224999999999994
42
-0.41421356237309503
10
241.15000000000003
20
-78.724999999999994
10
254.15000000000003
20
-78.724999999999994
42
-0.41421356237309503
10
254.65000000000003
20
-79.224999999999994
10
254.65000000000003
20
-92.224999999999994
42
-0.41421356237309503
10
254.15000000000003
20
-92.725000000000009
10
241.15000000000003
20
-92.725000000000009
42
-0.41421356237309503
0
LWPOLYLINE
5
136
100
AcDbEntity
8
0
100
AcDbPolyline
90
8
70
1
43
0.0
10
236.26875000000001
20
-29.161999999999999
10
236.26875000000001
20
-23.161999999999999
42
-0.41421356237309503
10
236.76875000000001
20
-22.661999999999999
10
250.76875000000001
20
-22.661999999999992
42
-0.41421356237309503
10
251.26875000000001
20
-23.161999999999999
10
251.26875000000001
20
-29.161999999999999
42
-0.41421356237309503
10
250.76875000000001
20
-29.662000000000003
10
236.76875000000001
20
-29.662000000000006
42
-0.41421356237309503
0
LWPOLYLINE
5
137
100
AcDbEntity
8
0
100
AcDbPolyline
90
8
70
1
43
0.0
10
59.387500000000003
20
-54.125000000000007
10
59.387500000000003
20
-41.125
42
0.41421356237309503
10
58.88750000000001
20
-40.625
10
45.887500000000003
20
-40.625
42
0.41421356237309503
10
45.387500000000003
20
-41.125
10
45.387500000000003
20
-54.125000000000007
42
0.41421356237309503
10
45.887500000000003
20
-54.625
10
58.88750000000001
20
-54.625
42
0.41421356237309503
0
LWPOLYLINE
5
138
100
AcDbEntity
8
0
100
AcDbPolyline
90
8
70
1
43
0.0
10
252.26875000000004
20
-44.600000000000001
42
-0.41421356237309503
10
251.76875000000001
20
-45.099999999999994
10
238.76875000000001
20
-45.100000000000009
42
-0.41421356237309503
10
238.26875000000001
20
-44.600000000000001
10
238.26875000000001
20
-31.600000000000001
42
-0.41421356237309503
10
238.76875000000001
20
-31.100000000000001
10
251.76875000000001
20
-31.099999999999994
42
-0.41421356237309503
10
252.26875000000004
20
-31.600000000000001
0
LWPOLYLINE
5
139
100
AcDbEntity
8
0
100
AcDbPolyline
90
8
70
1
43
0.0
10
206.52500000000003
20
-35.575000000000003
10
193.52500000000003
20
-35.57500000000001
42
-0.41421356237309503
10
193.02500000000003
20
-35.075000000000003
10
193.02500000000003
20
-22.074999999999999
42
-0.41421356237309503
10
193.52500000000003
20
-21.575000000000003
10
206.52500000000003
20
-21.574999999999992
42
-0.41421356237309503
10
207.02500000000003
20
-22.074999999999999
10
207.02500000000003
20
-35.075000000000003
42
-0.41421356237309503
0
LWPOLYLINE
5
140
100
AcDbEntity
8
0
100
AcDbPolyline
90
8
70
1
43
0.0
10
18.40625
20
-40.625
10
5.40625
20
-40.625
42
0.41421356237309503
10
4.90625
20
-41.125
10
4.90625
20
-54.125000000000007
42
0.41421356237309503
10
5.4062499999999991
20
-54.625
10
18.40625
20
-54.625
42
0.41421356237309503
10
18.90625
20
-54.125000000000007
10
18.906250000000004
20
-41.125
42
0.41421356237309503
0
LWPOLYLINE
5
141
100
AcDbEntity
8
0
100
AcDbPolyline
90
8
70
1
43
0.0
10
40.337500000000006
20
-54.125000000000007
10
40.337500000000006
20
-41.125
42
0.41421356237309503
10
39.837499999999999
20
-40.625
10
26.837499999999999
20
-40.625
42
0.41421356237309503
10
26.337499999999999
20
-41.125
10
26.337499999999999
20
-54.125000000000007
42
0.41421356237309503
10
26.837499999999999
20
-54.625
10
39.837499999999999
20
-54.625
42
0.41421356237309503
0
LWPOLYLINE
5
142
100
AcDbEntity
8
0
100
AcDbPolyline
90
8
70
1
43
0.0
10
212.07499999999999
20
-35.075000000000003
10
212.07499999999999
20
-22.074999999999999
42
-0.41421356237309503
10
212.57499999999999
20
-21.575000000000003
10
225.57500000000002
20
-21.574999999999992
42
-0.41421356237309503
10
226.07500000000002
20
-22.074999999999999
10
226.07500000000002
20
-35.075000000000003
42
-0.41421356237309503
10
225.57500000000002
20
-35.575000000000003
10
212.57499999999999
20
-35.57500000000001
42
-0.41421356237309503
0
LWPOLYLINE
5
143
100
AcDbEntity
8
0
100
AcDbPolyline
90
8
70
1
43
0.0
10
236.26875000000001
20
-53.038000000000011
10
236.26875000000001
20
-47.038000000000004
42
-0.41421356237309503
10
236.76875000000001
20
-46.538000000000004
10
250.76875000000001
20
-46.537999999999997
42
-0.41421356237309503
10
251.26875000000001
20
-47.038000000000004
10
251.26875000000001
20
-53.038000000000011
42
-0.41421356237309503
10
250.76875000000001
20
-53.538000000000004
10
236.76875000000001
20
-53.538000000000011
42
-0.41421356237309503
0
LWPOLYLINE
5
144
100
AcDbEntity
8
0
100
AcDbPolyline
90
8
70
1
43
0.0
10
154.13749999999999
20
-40.624999999999993
42
-0.41421356237309503
10
154.63750000000002
20
-41.125
10
154.63750000000002
20
-54.125000000000007
42
-0.41421356237309503
10
154.13749999999999
20
-54.625
10
141.13749999999999
20
-54.625000000000014
42
-0.41421356237309503
10
140.63749999999999
20
-54.125000000000007
10
140.63749999999999
20
-41.125
42
-0.41421356237309503
10
141.13749999999999
20
-40.625
0
LWPOLYLINE
5
145
100
AcDbEntity
8
0
100
AcDbPolyline
90
8
70
1
43
0.0
10
64.4375
20
-54.125000000000007
10
64.4375
20
-41.125
42
-0.41421356237309503
10
64.9375
20
-40.625
10
77.9375
20
-40.625
42
-0.41421356237309503
10
78.4375
20
-41.125
10
78.4375
20
-54.125000000000007
42
-0.41421356237309503
10
77.9375
20
-54.625
10
64.9375
20
-54.625
42
-0.41421356237309503
0
LWPOLYLINE
5
146
100
AcDbEntity
8
0
100
AcDbPolyline
90
8
70
1
43
0.0
10
211.78750000000002
20
-54.125000000000007
10
211.78750000000002
20
-41.125
42
0.41421356237309503
10
211.28749999999999
20
-40.625
10
198.28749999999999
20
-40.625
42
0.41421356237309503
10
197.78750000000002
20
-41.125
10
197.78749999999999
20
-54.125000000000007
42
0.41421356237309503
10
198.28749999999999
20
-54.625
10
211.28749999999999
20
-54.625
42
0.41421356237309503
0
LWPOLYLINE
5
147
100
AcDbEntity
8
0
100
AcDbPolyline
90
8
70
1
43
0.0
10
116.53749999999999
20
-54.125000000000007
42
-0.41421356237309503
10
116.03749999999999
20
-54.625
10
103.03750000000001
20
-54.625000000000014
42
-0.41421356237309503
10
102.53749999999999
20
-54.125000000000007
10
102.53749999999999
20
-41.125
42
-0.41421356237309503
10
103.03750000000001
20
-40.625
10
116.03749999999999
20
-40.624999999999993
42
-0.41421356237309503
10
116.53750000000001
20
-41.125
0
LWPOLYLINE
5
148
100
AcDbEntity
8
0
100
AcDbPolyline
90
8
70
1
43
0.0
10
135.58750000000001
20
-54.125000000000007
42
-0.41421356237309503
10
135.08750000000001
20
-54.625
10
122.08750000000002
20
-54.625000000000014
42
-0.41421356237309503
10
121.58750000000001
20
-54.125000000000007
10
121.58750000000001
20
-41.125
42
-0.41421356237309503
10
122.08750000000002
20
-40.625
10
135.08750000000001
20
-40.624999999999993
42
-0.41421356237309503
10
135.58750000000001
20
-41.125
0
LWPOLYLINE
5
149
100
AcDbEntity
8
0
100
AcDbPolyline
90
8
70
1
43
0.0
10
173.68750000000003
20
-54.125000000000007
10
173.68750000000003
20
-41.125
42
0.41421356237309503
10
173.1875
20
-40.625
10
160.1875
20
-40.625
42
0.41421356237309503
10
159.6875
20
-41.125
10
159.6875
20
-54.125000000000007
42
0.41421356237309503
10
160.1875
20
-54.625
10
173.1875
20
-54.625
42
0.41421356237309503
0
LWPOLYLINE
5
150
100
AcDbEntity
8
0
100
AcDbPolyline
90
8
70
1
43
0.0
10
96.987500000000011
20
-54.625
10
83.987499999999997
20
-54.625000000000014
42
-0.41421356237309503
10
83.487499999999983
20
-54.125000000000007
10
83.487499999999983
20
-41.125
42
-0.41421356237309503
10
83.987499999999997
20
-40.625
10
96.987500000000011
20
-40.624999999999993
42
-0.41421356237309503
10
97.487500000000011
20
-41.125
10
97.487500000000011
20
-54.125000000000007
42
-0.41421356237309503
0
LWPOLYLINE
5
151
100
AcDbEntity
8
0
100
AcDbPolyline
90
8
70
1
43
0.0
10
102.25000000000001
20
-73.174999999999997
42
-0.41421356237309503
10
101.75
20
-73.674999999999997
10
88.75
20
-73.675000000000011
42
-0.41421356237309503
10
88.250000000000014
20
-73.174999999999997
10
88.25
20
-60.174999999999997
42
-0.41421356237309503
10
88.75
20
-59.675000000000004
10
101.75
20
-59.674999999999997
42
-0.41421356237309503
10
102.25000000000001
20
-60.174999999999997
0
LWPOLYLINE
5
152
100
AcDbEntity
8
0
100
AcDbPolyline
90
8
70
1
43
0.0
10
121.30000000000001
20
-73.174999999999997
10
121.30000000000001
20
-60.174999999999997
42
0.41421356237309503
10
120.8
20
-59.675000000000004
10
107.80000000000001
20
-59.675000000000004
42
0.41421356237309503
10
107.30000000000001
20
-60.174999999999997
10
107.30000000000001
20
-73.174999999999997
42
0.41421356237309503
10
107.80000000000001
20
-73.674999999999997
10
120.8
20
-73.674999999999997
42
0.41421356237309503
0
LWPOLYLINE
5
153
100
AcDbEntity
8
0
100
AcDbPolyline
90
8
70
1
43
0.0
10
21.287500000000001
20
-73.174999999999997
42
-0.41421356237309503
10
20.787500000000001
20
-73.674999999999997
10
7.7875000000000005
20
-73.674999999999997
42
-0.41421356237309503
10
7.2874999999999996
20
-73.174999999999997
10
7.2875000000000023
20
-60.174999999999997
42
-0.41421356237309503
10
7.7875000000000005
20
-59.675000000000004
10
20.787500000000001
20
-59.675000000000004
42
-0.41421356237309503
10
21.287500000000001
20
-60.174999999999997
0
LWPOLYLINE
5
154
100
AcDbEntity
8
0
100
AcDbPolyline
90
8
70
1
43
0.0
10
44.600000000000001
20
-59.675000000000004
10
31.600000000000001
20
-59.675000000000004
42
0.41421356237309503
10
31.100000000000001
20
-60.174999999999997
10
31.100000000000001
20
-73.174999999999997
42
0.41421356237309503
10
31.600000000000001
20
-73.674999999999997
10
44.600000000000001
20
-73.674999999999997
42
0.41421356237309503
10
45.099999999999994
20
-73.174999999999997
10
45.099999999999994
20
-60.174999999999997
42
0.41421356237309503
0
LWPOLYLINE
5
155
100
AcDbEntity
8
0
100
AcDbPolyline
90
8
70
1
43
0.0
10
50.150000000000006
20
-60.174999999999997
42
-0.41421356237309503
10
50.650000000000006
20
-59.675000000000004
10
63.650000000000006
20
-59.675000000000004
42
-0.41421356237309503
10
64.150000000000006
20
-60.174999999999997
10
64.150000000000006
20
-73.174999999999997
42
-0.41421356237309503
10
63.650000000000006
20
-73.674999999999997
10
50.650000000000006
20
-73.674999999999997
42
-0.41421356237309503
10
50.150000000000006
20
-73.174999999999997
0
LWPOLYLINE
5
156
100
AcDbEntity
8
0
100
AcDbPolyline
90
8
70
1
43
0.0
10
192.23750000000001
20
-40.625
10
179.23750000000001
20
-40.625
42
0.41421356237309503
10
178.73750000000001
20
-41.125
10
178.73750000000001
20
-54.125000000000007
42
0.41421356237309503
10
179.23750000000001
20
-54.625
10
192.23750000000001
20
-54.625
42
0.41421356237309503
10
192.73750000000004
20
-54.125000000000007
10
192.73750000000004
20
-41.125
42
0.41421356237309503
0
LWPOLYLINE
5
157
100
AcDbEntity
8
0
100
AcDbPolyline
90
8
70
1
43
0.0
10
82.700000000000017
20
-59.675000000000004
10
69.700000000000003
20
-59.675000000000004
42
0.41421356237309503
10
69.200000000000003
20
-60.174999999999997
10
69.200000000000003
20
-73.174999999999997
42
0.41421356237309503
10
69.700000000000003
20
-73.674999999999997
10
82.700000000000017
20
-73.674999999999997
42
0.41421356237309503
10
83.200000000000003
20
-73.174999999999997
10
83.200000000000017
20
-60.174999999999997
42
0.41421356237309503
0
LWPOLYLINE
5
158
100
AcDbEntity
8
0
100
AcDbPolyline
90
8
70
1
43
0.0
10
230.83750000000003
20
-54.125000000000007
42
-0.41421356237309503
10
230.33750000000001
20
-54.625
10
217.33750000000001
20
-54.625000000000014
42
-0.41421356237309503
10
216.83750000000001
20
-54.125000000000007
10
216.83750000000001
20
-41.125
42
-0.41421356237309503
10
217.33750000000001
20
-40.625
10
230.33750000000001
20
-40.624999999999993
42
-0.41421356237309503
10
230.83750000000003
20
-41.125
0
LWPOLYLINE
5
159
100
AcDbEntity
8
0
100
AcDbPolyline
90
8
70
1
43
0.0
10
126.35000000000002
20
-60.174999999999997
42
-0.41421356237309503
10
126.85000000000001
20
-59.675000000000004
10
139.84999999999999
20
-59.674999999999997
42
-0.41421356237309503
10
140.34999999999999
20
-60.174999999999997
10
140.34999999999999
20
-73.174999999999997
42
-0.41421356237309503
10
139.84999999999999
20
-73.674999999999997
10
126.85000000000001
20
-73.675000000000011
42
-0.41421356237309503
10
126.34999999999999
20
-73.174999999999997
0
CIRCLE
5
160
100
AcDbEntity
8
0
100
AcDbCircle
10
64.598743591070829
20
3.5751435977426738
30
0
40
1
210
0
220
0
230
1
0
LWPOLYLINE
5
161
100
AcDbEntity
8
0
100
AcDbPolyline
90
13
70
1
43
0.0
10
-9.0750001341104181
20
3.3700248437718877e-14
42
-0.41421356237309392
10
7.1054273576010019e-14
20
9.0750001341104891
10
123.82500000000007
20
9.0750001341104891
42
-0.41421356237309503
10
132.90000013411054
20
3.5527136788005009e-14
10
132.9000001341106
20
-9.0497376745192426
42
0.4142135623731063
10
133.82500000000016
20
-9.9747375404088245
10
248.67732805013225
20
-9.9747375404088245
10
257.17500000000007
20
-9.9747375404088245
42
-0.41421356237309276
10
266.25000013411045
20
-19.049737674519278
10
266.25000013411045
20
-95.249999999999943
42
-0.41421356237309048
10
257.17500000000007
20
-104.32500013411047
10
7.1393462001271651e-14
20
-104.32500013411051
42
-0.41421356237309159
10
-9.0750001341103825
20
-95.250000000000028
0
CIRCLE
5
162
100
AcDbEntity
8
0
100
AcDbCircle
10
9.5988590052693468
20
-98.824918392137818
30
0
40
1
210
0
220
0
230
1
0
CIRCLE
5
163
100
AcDbEntity
8
0
100
AcDbCircle
10
9.5988590052693468
20
3.5750816078622449
30
0
40
1
210
0
220
0
230
1
0
CIRCLE
5
164
100
AcDbEntity
8
0
100
AcDbCircle
10
247.57585900526934
20
-15.474918392137766
30
0
40
1
210
0
220
0
230
1
0
CIRCLE
5
165
100
AcDbEntity
8
0
100
AcDbCircle
10
64.598859005269347
20
-98.824918392137818
30
0
40
1
210
0
220
0
230
1
0
CIRCLE
5
166
100
AcDbEntity
8
0
100
AcDbCircle
10
192.57585900526934
20
-98.824918392137818
30
0
40
1
210
0
220
0
230
1
0
CIRCLE
5
167
100
AcDbEntity
8
0
100
AcDbCircle
10
192.57585900526934
20
-98.824918392137818
30
0
40
1
210
0
220
0
230
1
0
CIRCLE
5
168
100
AcDbEntity
8
0
100
AcDbCircle
10
192.57585900526934
20
-15.474918392137766
30
0
40
1
210
0
220
0
230
1
0
CIRCLE
5
169
100
AcDbEntity
8
0
100
AcDbCircle
10
247.57585900526934
20
-98.824918392137818
30
0
40
1
210
0
220
0
230
1
0
ENDSEC
0
SECTION
2
OBJECTS
0
DICTIONARY
5
C
100
AcDbDictionary
3
ACAD_GROUP
350
D
3
ACAD_MLINESTYLE
350
17
0
DICTIONARY
5
D
100
AcDbDictionary
0
DICTIONARY
5
1A
330
C
100
AcDbDictionary
0
DICTIONARY
5
17
100
AcDbDictionary
0
ENDSEC
0
EOF
